<mxfile host="65bd71144e">
    <diagram id="bSG6LJW36YyYRicTBclz" name="Page-1">
        <mxGraphModel dx="820" dy="478" grid="1" gridSize="10" guides="1" tooltips="1" connect="1" arrows="1" fold="1" page="1" pageScale="1" pageWidth="850" pageHeight="1100" background="#F1FAEE" math="0" shadow="0">
            <root>
                <mxCell id="0"/>
                <mxCell id="1" parent="0"/>
                <mxCell id="16" value="Feedback" style="shape=umlFrame;whiteSpace=wrap;html=1;fontSize=14;fillColor=none;width=100;height=30;strokeColor=#457B9D;fontColor=#1D3557;" parent="1" vertex="1">
                    <mxGeometry x="220" y="80" width="520" height="360" as="geometry"/>
                </mxCell>
                <mxCell id="5" style="rounded=0;orthogonalLoop=1;jettySize=auto;html=1;endArrow=open;endFill=0;fontSize=14;strokeColor=#457B9D;fontColor=#1D3557;labelBackgroundColor=#F1FAEE;endSize=10;" parent="1" source="2" target="4" edge="1">
                    <mxGeometry relative="1" as="geometry"/>
                </mxCell>
                <mxCell id="11" style="edgeStyle=none;rounded=0;orthogonalLoop=1;jettySize=auto;html=1;entryX=0.025;entryY=0.588;entryDx=0;entryDy=0;entryPerimeter=0;endArrow=open;endFill=0;fontSize=14;strokeColor=#457B9D;fontColor=#1D3557;labelBackgroundColor=#F1FAEE;endSize=10;" parent="1" edge="1">
                    <mxGeometry relative="1" as="geometry">
                        <mxPoint x="150" y="268.8558441558441" as="sourcePoint"/>
                        <mxPoint x="443" y="266.03999999999996" as="targetPoint"/>
                    </mxGeometry>
                </mxCell>
                <mxCell id="15" style="edgeStyle=none;rounded=0;orthogonalLoop=1;jettySize=auto;html=1;fontSize=14;endArrow=open;endFill=0;strokeColor=#457B9D;fontColor=#1D3557;labelBackgroundColor=#F1FAEE;endSize=10;" parent="1" source="2" target="14" edge="1">
                    <mxGeometry relative="1" as="geometry"/>
                </mxCell>
                <mxCell id="2" value="Customer" style="shape=umlActor;verticalLabelPosition=bottom;verticalAlign=top;html=1;outlineConnect=0;fontSize=14;fillColor=#A8DADC;strokeColor=#457B9D;fontColor=#1D3557;" parent="1" vertex="1">
                    <mxGeometry x="120" y="240" width="30" height="60" as="geometry"/>
                </mxCell>
                <mxCell id="4" value="Rate food" style="ellipse;whiteSpace=wrap;html=1;fontSize=14;fillColor=#A8DADC;strokeColor=#457B9D;fontColor=#1D3557;" parent="1" vertex="1">
                    <mxGeometry x="310" y="120" width="120" height="80" as="geometry"/>
                </mxCell>
                <mxCell id="7" style="edgeStyle=orthogonalEdgeStyle;rounded=0;orthogonalLoop=1;jettySize=auto;html=1;entryX=1;entryY=0.5;entryDx=0;entryDy=0;dashed=1;endArrow=open;endFill=0;fontSize=14;strokeColor=#457B9D;fontColor=#1D3557;labelBackgroundColor=#F1FAEE;endSize=10;startSize=10;" parent="1" source="6" target="4" edge="1">
                    <mxGeometry relative="1" as="geometry"/>
                </mxCell>
                <mxCell id="12" value="&amp;lt;&amp;lt;extend&amp;gt;&amp;gt;" style="edgeLabel;html=1;align=center;verticalAlign=middle;resizable=0;points=[];fontSize=14;fontColor=#1D3557;labelBackgroundColor=#F1FAEE;" parent="7" vertex="1" connectable="0">
                    <mxGeometry x="-0.3" y="1" relative="1" as="geometry">
                        <mxPoint x="-5" y="-11" as="offset"/>
                    </mxGeometry>
                </mxCell>
                <mxCell id="6" value="Write review" style="ellipse;whiteSpace=wrap;html=1;fontSize=14;fillColor=#A8DADC;strokeColor=#457B9D;fontColor=#1D3557;" parent="1" vertex="1">
                    <mxGeometry x="600" y="120" width="120" height="80" as="geometry"/>
                </mxCell>
                <mxCell id="10" value="Like review" style="ellipse;whiteSpace=wrap;html=1;fontSize=14;fillColor=#A8DADC;strokeColor=#457B9D;fontColor=#1D3557;" parent="1" vertex="1">
                    <mxGeometry x="440" y="220" width="120" height="80" as="geometry"/>
                </mxCell>
                <mxCell id="14" value="View review" style="ellipse;whiteSpace=wrap;html=1;fontSize=14;fillColor=#A8DADC;strokeColor=#457B9D;fontColor=#1D3557;" parent="1" vertex="1">
                    <mxGeometry x="310" y="320" width="120" height="80" as="geometry"/>
                </mxCell>
            </root>
        </mxGraphModel>
    </diagram>
</mxfile>